<svg width="54" height="50" viewBox="0 0 54 50" fill="none" xmlns="http://www.w3.org/2000/svg">
<path d="M54 25C54 38.8071 41.9117 50 27 50C12.0883 50 0 38.8071 0 25C0 11.1929 12.0883 0 27 0C41.9117 0 54 11.1929 54 25Z" fill="#333333"/>
<path d="M9.9692 44.4003C11.4303 37.7423 18.4995 32.6923 27 32.6923C35.5005 32.6923 42.5697 37.7423 44.0308 44.4003C39.3848 47.9012 33.4571 50 27 50C20.5429 50 14.6152 47.9012 9.9692 44.4003Z" fill="white"/>
<path d="M35.3077 21.6346C35.3077 25.9715 31.5107 29.4872 26.8269 29.4872C22.1431 29.4872 18.3462 25.9715 18.3462 21.6346C18.3462 17.2978 22.1431 13.7821 26.8269 13.7821C31.5107 13.7821 35.3077 17.2978 35.3077 21.6346Z" fill="white"/>
</svg>
